#!OML:ASF E:/inclinewalkrobotboard/Project1/Captureday1/Session1/subject1.ASF
:FULLY-SPECIFIED
:DEGREES
76
root 0 0 0 -0.3984758377565554 -2.0177997730323387 -3.8734397390079884
lowerback 16.352602285080444 1.1402092034835634 -0.08765707170617365
upperback 0.7585087492837581 1.5004569706856241 0.3404085551353133
thorax -8.432770027962782 0.7125401749810726 0.045839902520108056
lowerneck -7.456761715517853 -3.297476073766321 1.1879472832578446
upperneck -4.9687582390736935 -4.3057263729160615 1.8590668132494446
head -0.39390398241925784 -2.2129334407262267 0.28090382713476175
rclavicle -3.7351896395150642E-16 1.3000284711875469E-17
rhumerus 11.952752225556907 0.4266054114223987 -39.57960410673826
rradius 118.45703356946797
rwrist -30.66520675947317
rhand -11.703301890507957 -36.36416797100841
rfingers 7.125019999999963
rthumb 14.38170090744752 -65.78525063835298
lclavicle -4.3489698564249765E-16 -4.807134291315172E-16
lhumerus -43.10958635328161 -0.40000949047550693 83.11573656310532
lradius 44.95361881611015
lwrist 2.0677528946933834
lhand -15.845703304256855 -11.385014031414704
lfingers 7.125019999999927
lthumb 10.309318869328841 17.722336966231214
rfemur -2.858674584281715 1.0646379134344846 5.718169464630403
rtibia 8.557730967263764
rfoot -1.6121963911243156 -1.3959177660239295
rtoes 0.82052632622221
lfemur -6.5447140176632415 -3.548899080014773 -12.30100612357825
ltibia 27.468395409534622
lfoot -19.147036136637897 7.866285581791155
ltoes -42.95812397049728
77
root 0 0 0 -0.3978908648425964 -2.01863449088762 -3.872370964155933
lowerback 16.358217546292156 1.1359512743930336 -0.09052616505917488
upperback 0.7552872936003889 1.4943437140417664 0.3407963624473396
thorax -8.439690067104415 0.7095580149641391 0.04839333136737212
lowerneck -7.456399018862767 -3.293190421586592 1.1955951110480103
upperneck -5.011337664249151 -4.297982882246639 1.849049118387185
head -0.40792665613684154 -2.2103253280636017 0.27757954400132795
rclavicle -3.7504192121245123E-16 1.334722799900468E-17
rhumerus 11.948553417562621 0.4337297173058605 -39.57998145588153
rradius 118.46410150167434
rwrist -30.668258801593037
rhand -11.699504045700227 -36.38099694130954
rfingers 7.125019999999963
rthumb 14.385011573752521 -65.80185405197626
lclavicle -4.3240478482451287E-16 -4.808795502109957E-16
lhumerus -43.118716026911756 -0.39983468442114833 83.1161209370935
lradius 44.96650500980154
lwrist 2.064546847701559
lhand -15.836624424007606 -11.41298969729084
lfingers 7.125019999999927
lthumb 10.317889893921683 17.695129169564392
rfemur -2.859170072929004 1.064508513351268 5.718050978315286
rtibia 8.55890954523776
rfoot -1.6125711418870852 -1.3961995904359554
rtoes 0.8200932334713822
lfemur -6.543515063829209 -3.549597114558693 -12.298912299809707
ltibia 27.466033829676263
lfoot -19.15073937165988 7.869263236943768
ltoes -42.96856165687288
78
root 0 0 0 -0.3973256887055928 -2.0190987063565338 -3.8725043529801475
lowerback 16.363283347214693 1.134247251828175 -0.09179385270630014
upperback 0.75300182001503 1.4918313440019428 0.34054758135681695
thorax -8.44491284740579 0.7083170253197546 0.04894714807930345
lowerneck -7.455585816349006 -3.2915272346595716 1.1999942006274198
upperneck -5.041988710192324 -4.294808742970968 1.8443804973043463
head -0.41835508302346014 -2.209390488830923 0.2759942161226874
rclavicle -3.7492353006963427E-16 1.3554871081921158E-17
rhumerus 11.955150706087785 0.4392978438257167 -39.57305635386696
rradius 118.48161080222707
rwrist -30.676038134796997
rhand -11.697515100206063 -36.39491567809748
rfingers 7.125019999999963
rthumb 14.38688001613352 -65.81527558530945
lclavicle -4.319586550526309E-16 -4.804771737791886E-16
lhumerus -43.12454667023869 -0.39993491223558986 83.11689546955147
lradius 44.97522168887466
lwrist 2.0619322869483034
lhand -15.830054321219473 -11.433605948289584
lfingers 7.125019999999927
lthumb 10.324011340997341 17.675456866072317
rfemur -2.860536667050461 1.0651192652375776 5.721111323475711
rtibia 8.562887612284882
rfoot -1.6135880748186429 -1.396945221342849
rtoes 0.8205554228783314
lfemur -6.542306005739302 -3.550470066760411 -12.296023128087832
ltibia 27.463424205881843
lfoot -19.15605071776366 7.873942558176051
ltoes -42.98403025197539
79
root 0 0 0 -0.3963830268295021 -2.0192997928595293 -3.873359158078916
lowerback 16.366390775903206 1.1337086162965722 -0.09219625996100556
upperback 0.7513364764107572 1.490968172795425 0.3400587173676486
thorax -8.448351438951368 0.7078931910262372 0.0486364026681092
lowerneck -7.453462337991659 -3.290735880215143 1.2029895874078669
upperneck -5.062826186688778 -4.2934333164642675 1.8424815109261679
head -0.4258179118226293 -2.209023694192423 0.2753038413975104
rclavicle -3.74893719804517E-16 1.3935723945436016E-17
rhumerus 11.965219153207848 0.44775224957931137 -39.56249765496678
rradius 118.50793700794736
rwrist -30.68808751398249
rhand -11.694525397517 -36.41576587119643
rfingers 7.125019999999963
rthumb 14.389701686645633 -65.8355600703122
lclavicle -4.31356126763111E-16 -4.797962234909617E-16
lhumerus -43.13242399163232 -0.3997386951751165 83.11825095711536
lradius 44.986417110913514
lwrist 2.057709691960764
lhand -15.821009467045878 -11.462182949377418
lfingers 7.125019999999927
lthumb 10.33258493809435 17.64811810947811
rfemur -2.8586212208346122 1.0644633700716475 5.717420171001619
rtibia 8.556863971797954
rfoot -1.6127165602947557 -1.3960168304263592
rtoes 0.8199366026832775
lfemur -6.540490086680569 -3.551818579447823 -12.29180632515372
ltibia 27.45951947197133
lfoot -19.16368241164526 7.880607882687226
ltoes -43.00619890991237
80
root 0 0 0 -0.39800180080926684 -2.019018540695375 -3.873660972691
lowerback 16.36988642369413 1.1361495697904593 -0.09125354481122627
upperback 0.7512111591468957 1.4944742003237352 0.3392916905338018
thorax -8.449899300769884 0.7095113824902047 0.046777924006139004
lowerneck -7.458400315076717 -3.294471648101242 1.1988676363584836
upperneck -5.0629023307959145 -4.298948969103376 1.8468104232212392
head -0.4248326838201981 -2.2113481883177633 0.2767444913470821
rclavicle -3.742911191650264E-16 1.318972307074148E-17
rhumerus 11.966858986169527 0.4270511486629669 -39.568084480660474
rradius 118.47743233810203
rwrist -30.673204227858974
rhand -11.703879234079384 -36.36953575271632
rfingers 7.125019999999963
rthumb 14.381149291503489 -65.79052623739791
lclavicle -4.325888699702358E-16 -4.792677082243495E-16
lhumerus -43.12890284379488 -0.39899967081124443 83.11867925581065
lradius 44.979803327231416
lwrist 2.0573385888228053
lhand -15.82407990380363 -11.452878600211756
lfingers 7.125019999999927
lthumb 10.329823632780077 17.65694805592219
rfemur -2.851759794870633 1.062032395181837 5.704393530027046
rtibia 8.537439793707032
rfoot -1.6082235360142851 -1.392441029327033
rtoes 0.8185762704237363
lfemur -6.542478049399044 -3.550517954899913 -12.295893643405867
ltibia 27.463860904275172
lfoot -19.156311521957694 7.874374435546256
ltoes -42.98524782661641
